PathFileType	4	(X/Y/Z)	C:/Users/beibeiliu/ov580/test_trc/capture2\sequence.29_training_dense_left.trc
DataRate	CameraRate	NumFrames	NumMarkers	Units	OrigDataRate	OrigDataStartFrame	OrigNumFrames
120	120	22	19	mm	120	256	340
Frame#	Time	ThumbCMC			ThumbMCP			ThumbIP			ThumbTip			IndexMCP			IndexPIP			IndexTip			MiddleMCP			MiddlePIP			MiddleTip			RingMCP			RingPIP			RingTip			PinkyMCP			PinkyPIP			PinkyTip			BackHand1			BackHand2			BackHand3	
		X0	Y0	Z0	X1	Y1	Z1	X2	Y2	Z2	X3	Y3	Z3	X4	Y4	Z4	X5	Y5	Z5	X6	Y6	Z6	X7	Y7	Z7	X8	Y8	Z8	X9	Y9	Z9	X10	Y10	Z10	X11	Y11	Z11	X12	Y12	Z12	X13	Y13	Z13	X14	Y14	Z14	X15	Y15	Z15	X16	Y16	Z16	X17	Y17	Z17	X18	Y18	Z18	
255	2.125	-119.133	29.837	31.7515	-100.245	30.2025	15.6977	-81.8178	38.8937	-1.31708	-67.4697	47.4621	-18.1466	-113.254	36.0945	-37.8176	-121.151	4.05557	-38.4376	-129.868	5.99832	-7.33121	-131.134	34.8392	-43.906	-138.486	5.79409	-41.8697	-141.64	8.82896	-3.45094	-150.913	40.0219	-46.5178	-153.923	6.75057	-44.1551	-150.251	7.506	-9.70496	-175.842	59.3082	-39.8541	-179.972	59.0777	-60.2879	-180.1	63.2021	-88.4976	-160.253	62.9867	4.30989	-166.537	56.5702	34.2231	-137.125	56.4783	27.4259	
256	2.13333	-116.853	29.5505	35.3084	-98.4081	30.8902	15.442	-85.5972	40.6705	-4.14236	-65.5355	48.1852	-17.8644	-112.636	35.2413	-36.444	-117.245	1.6889	-36.6222	-128.059	6.30904	-5.15425	-137.797	35.0843	-43.7847	-138.557	2.84966	-40.8261	-140.207	6.43188	-3.44279	-151.672	34.7158	-48.1756	-153.357	5.27947	-44.2383	-151.089	6.16879	-10.623	-178.411	55.5818	-38.4473	-176.538	56.8428	-60.4033	-181.137	60.7584	-84.2796	-162.598	61.7492	2.92983	-167.479	57.7806	34.2622	-138.64	57.5048	26.2836	
257	2.14167	-115.356	30.1155	35.4822	-97.7228	32.6549	14.3757	-86.404	39.1893	-3.44603	-69.9134	46.1309	-20.2456	-112.317	31.489	-40.5655	-121.802	2.51991	-36.9295	-129.44	5.16553	-7.40582	-132.677	32.6812	-44.9976	-139.223	0.179405	-35.7896	-137.326	7.73567	-1.556	-154.186	37.1293	-45.7412	-153.746	4.45027	-44.2117	-148.032	4.66072	-11.0596	-178.759	52.4907	-39.282	-179	52.9856	-63.0117	-185.136	59.7931	-85.2492	-162.374	61.2737	1.30293	-168.94	58.4611	34.2742	-137.485	57.7067	20.241	
258	2.15	-117.687	30.9439	33.0042	-102.578	28.5324	15.0162	-81.5229	38.7509	-5.89042	-70.6559	44.4915	-20.3681	-115.235	31.6961	-39.9818	-121.238	2.3158	-39.3853	-128.865	3.05885	-7.53161	-138.101	32.2662	-45.6302	-136.363	-0.608761	-36.1382	-141.347	9.90574	-0.797993	-153.621	32.6994	-47.9052	-150.247	2.30674	-42.2952	-150.672	5.7697	-6.34294	-176.79	52.7556	-42.0611	-181.366	52.8394	-65.0652	-183.542	56.0529	-83.765	-165.497	62.0139	3.1575	-166.264	58.3585	32.4616	-137.777	57.2275	22.0197	
259	2.15833	-116.231	30.5368	30.467	-100.207	28.8559	11.9088	-85.1204	38.4983	-10.1127	-69.8322	41.1603	-23.4664	-117.129	32.2189	-41.0264	-116.981	1.10223	-41.3537	-126.827	0.222889	-8.08659	-137.197	32.1187	-46.48	-138.737	0.745297	-42.14	-138.469	7.3565	-1.87504	-156.726	32.2351	-49.0633	-154.392	3.69265	-45.5494	-148.822	3.87409	-9.30909	-177.078	51.0341	-37.604	-182.682	50.9129	-62.5225	-181.013	56.8644	-86.7477	-167.451	62.9824	4.24726	-167.644	57.1192	33.036	-133.367	58.55	22.1691	
260	2.16667	-119.032	29.946	29.9157	-101.004	28.7096	11.031	-86.8442	35.9618	-9.65422	-75.384	38.9963	-25.4353	-118.655	31.3576	-43.2267	-123.629	4.01374	-44.3427	-128.222	-1.0567	-9.84959	-137.548	34.173	-46.5982	-139.312	2.02676	-45.5549	-139.432	3.26503	-5.43811	-154.827	36.6991	-46.7796	-153.731	5.73159	-49.8439	-152.131	-1.12653	-15.8485	-179.253	53.2295	-43.1829	-180.92	53.0056	-59.8102	-181.874	60.1405	-87.3534	-168.064	61.6684	3.7063	-169.821	57.6469	32.8685	-139.404	57.0908	21.954	
261	2.175	-120.148	28.0237	32.7948	-101.541	26.733	10.4714	-87.77	35.5107	-13.2537	-74.9703	39.5967	-28.9551	-114.669	32.1036	-42.9263	-120.641	1.33205	-44.8421	-132.932	-1.04258	-13.2118	-137.996	35.9553	-49.4846	-143.653	3.42629	-48.9795	-145.339	-0.578881	-14.2669	-158.783	40.8945	-48.4591	-159.649	7.62949	-56.3665	-153.061	-6.72831	-26.6929	-179.097	54.1626	-37.9275	-182.659	54.8394	-59.848	-183.414	61.8106	-85.5343	-164.99	61.6452	0.571978	-170.524	59.1341	30.5423	-133.425	57.1184	23.315	
262	2.18333	-119.817	27.9235	32.1726	-104.785	27.7366	8.77938	-88.3831	32.0199	-8.10703	-72.0362	39.3495	-30.6144	-119.654	33.3475	-44.7673	-121.91	1.90185	-46.9541	-135.456	-3.64188	-15.1797	-138.637	39.5573	-47.9624	-141.903	6.95034	-54.9518	-148.305	-3.26037	-18.6938	-159.278	45.4584	-50.9601	-159.97	15.6972	-64.9437	-154.546	-8.44338	-46.1266	-181.917	58.2667	-38.6932	-185.067	60.3043	-62.2354	-186.186	68.7471	-79.7281	-161.898	62.4434	6.09599	-170.288	58.6737	35.9859	-137.835	55.7976	23.2651	
263	2.19167	-116.736	26.5798	33.1465	-99.5183	27.392	9.77755	-84.893	33.0537	-10.5258	-73.9636	38.1363	-28.4372	-116.878	32.4903	-44.0823	-124.329	2.164	-49.8223	-133.834	-9.03309	-21.6946	-138.618	41.5336	-49.2408	-144.012	8.81445	-60.1732	-148.87	-9.36812	-25.7524	-156.491	50.9143	-49.8743	-162.237	30.6519	-72.113	-156.27	-2.31937	-69.893	-179.694	57.2172	-36.0254	-182.015	63.1035	-60.5066	-186.861	74.2168	-81.0015	-165.317	61.358	3.92819	-169.757	56.7942	35.4483	-133.063	55.2158	20.1459	
264	2.2	-121.051	26.455	32.1751	-103.156	23.9326	13.3108	-84.0543	32.8022	-11.4416	-73.2015	35.7106	-26.2464	-120.623	34.1239	-45.0741	-121.903	6.18535	-53.7911	-136.538	-11.731	-28.4598	-141.089	43.4455	-53.9607	-141.466	14.6921	-65.8769	-146.975	-12.7042	-43.0421	-159.9	54.4117	-48.16	-159.29	39.5021	-75.582	-158.367	12.7242	-88.5361	-181.493	60.1973	-37.8207	-183.801	64.8931	-55.1802	-185.786	74.8344	-75.3636	-161.675	60.4311	4.81912	-168.004	57.0416	32.8448	-135.251	56.0341	23.7067	
265	2.20833	-117.205	27.365	28.8626	-104.076	23.3501	11.8237	-84.1162	29.4274	-7.10924	-74.3086	34.2997	-26.8609	-120.31	35.481	-42.0366	-125.294	3.15716	-54.5975	-138.684	-13.6449	-34.3454	-138.356	46.7241	-50.4748	-144.426	23.5551	-71.0902	-149.684	-12.2897	-60.8125	-157.331	55.4535	-50.3369	-163.798	47.168	-75.9836	-162.092	31.0159	-97.1507	-181.216	59.7369	-34.8036	-184.854	66.5165	-57.9339	-189.224	79.0153	-75.4852	-162.902	62.9123	6.96804	-166.721	59.8257	32.5872	-131.83	55.5733	22.8331	
266	2.21667	-117.496	26.3433	29.1961	-103.921	23.404	9.94244	-85.6355	27.4192	-8.28428	-74.0937	31.5671	-27.9576	-120.745	34.3698	-42.8894	-123.216	6.14885	-57.6088	-137.546	-17.8198	-40.759	-141.858	47.9197	-51.4378	-143.652	26.3417	-74.6572	-149.89	-10.5531	-79.0268	-158.108	56.388	-47.8836	-163.297	52.0325	-72.6706	-164.939	45.3943	-103.545	-181.228	59.7165	-36.7353	-188.494	66.3392	-55.1615	-190.814	79.1953	-71.5931	-160.779	63.3363	4.08603	-169.362	57.9155	34.2634	-133.082	54.0423	23.629	
267	2.225	-117.543	25.1983	30.5504	-100.27	22.0411	10.6308	-88.0864	23.9531	-8.57595	-71.713	28.1132	-27.8267	-119.105	33.0174	-42.799	-124.611	1.77077	-57.2324	-141.091	-21.9606	-40.8909	-140.551	44.9804	-54.1454	-143.283	28.1776	-74.4044	-146.579	-3.78933	-88.793	-162.345	55.2029	-46.3601	-162.713	52.4709	-73.906	-164.994	51.3335	-97.0303	-180.976	56.7238	-34.6553	-188.63	62.5115	-53.0231	-194.798	76.9633	-67.4152	-165.635	62.3402	4.96699	-169.85	56.7656	36.0919	-135.311	52.9127	23.5664	
268	2.23333	-117.236	25.4112	32.8769	-104.042	21.8122	10.6362	-84.181	25.9101	-11.1811	-74.1762	26.2152	-25.7833	-117.343	28.4632	-45.0355	-122.845	5.24205	-58.2802	-139.561	-24.5209	-43.6981	-142.186	44.2283	-52.904	-145.061	25.1232	-77.4278	-146.63	1.81388	-90.9983	-163.065	53.8734	-47.9403	-162.092	51.4246	-71.5186	-163.93	50.921	-94.7451	-186.982	56.3575	-34.0345	-189.551	60.4359	-51.9952	-197.576	75.5735	-70.0816	-165.229	61.6533	5.64498	-167.951	56.8143	37.2353	-136.397	55.2076	20.1735	
269	2.24167	-115.511	24.7612	34.9637	-99.6376	21.6853	11.106	-86.3345	24.4557	-8.81592	-70.3854	26.8806	-28.5134	-119.419	30.5446	-42.082	-125.299	4.15387	-58.5633	-136.334	-23.9186	-46.7408	-144.162	44.5165	-49.684	-145.109	28.0503	-73.6231	-148.238	1.60447	-91.5755	-158.567	53.0872	-49.702	-161.744	51.7191	-74.5774	-165.885	52.6887	-100.531	-185.501	53.8496	-32.1266	-191.853	58.6645	-51.591	-199.633	72.0676	-64.9305	-165.005	58.3857	6.32628	-164.973	58.0168	35.7878	-133.374	51.9038	24.4215	
270	2.25	-120.955	25.327	32.5399	-100.523	21.2265	10.0207	-84.9331	23.7907	-9.92602	-71.8771	25.037	-25.0453	-120.051	29.77	-44.0847	-127.577	3.49366	-58.2723	-137.992	-23.9814	-48.8756	-141.262	41.6887	-53.5679	-145.471	26.295	-74.2478	-148.448	-4.58059	-92.0504	-160.279	51.6211	-48.4027	-166.323	50.5012	-70.1204	-163.829	50.1905	-100.374	-185.74	52.0286	-31.7305	-189.616	55.614	-49.8617	-201.245	74.3535	-65.8721	-165.574	58.4975	5.41858	-168.064	55.5548	35.1163	-135.708	54.47	22.9083	
271	2.25833	-118.519	25.5382	31.9289	-99.6771	20.7955	9.95392	-84.8659	22.7022	-9.49319	-75.4926	24.8016	-28.028	-119.272	27.5367	-45.4635	-124.409	0.677315	-56.9566	-140.201	-26.6575	-46.1723	-143.937	41.198	-54.1558	-142.45	25.5088	-73.7497	-147.143	-1.20234	-90.1309	-161.599	50.3004	-45.9907	-162.83	48.8628	-72.2409	-167.324	49.1811	-97.2639	-184.694	51.3691	-33.8657	-194.608	58.3837	-53.43	-202.073	72.6894	-69.3039	-167.153	58.7725	2.93317	-167.09	56.4416	35.5108	-136.475	51.8825	20.6362	
272	2.26667	-117.831	23.7863	34.1824	-104.559	19.4273	12.557	-85.5498	23.3902	-13.1463	-75.1176	23.018	-24.5469	-123.459	29.9123	-43.8087	-124.651	3.53176	-56.7495	-140.737	-23.0758	-48.0426	-143.985	41.7056	-53.5808	-147.18	21.9885	-76.5636	-146.99	-2.11693	-89.9459	-162.029	50.417	-49.6615	-163.636	48.9841	-69.4249	-165.404	48.5133	-97.5241	-186.395	51.4062	-31.4805	-194.089	56.901	-51.7344	-202.771	69.4902	-65.0887	-167.673	58.6877	7.59799	-166.146	56.3296	37.4742	-135.798	50.9822	23.1916	
273	2.275	-117.543	25.0247	32.0039	-104.336	18.2309	13.3338	-89.238	22.2201	-11.2625	-75.4734	22.8835	-25.7696	-118.322	29.9452	-40.8177	-122.628	2.01493	-56.1847	-136.58	-25.5119	-44.6734	-142.51	41.8891	-50.382	-147.273	25.8861	-73.8811	-146.839	-2.71279	-90.1484	-164.955	51.1495	-49.8727	-163.892	48.3312	-69.2595	-166.921	48.6404	-99.185	-184.893	50.7307	-31.8867	-195.449	56.8014	-52.4192	-198.508	70.3281	-64.6356	-166.378	58.6981	7.89001	-167.251	55.479	37.1681	-138.57	51.6489	22.1889	
274	2.28333	-120.703	24.2834	32.5617	-101.817	18.7966	13.8652	-84.7527	22.8152	-9.72621	-72.9417	23.4096	-24.6442	-123.573	30.7819	-42.4408	-126.341	3.95066	-56.4314	-139.987	-23.6761	-42.0439	-142.258	42.9842	-51.1239	-142.21	23.8556	-74.6469	-146.589	-2.78027	-89.0357	-165.692	51.2931	-48.5686	-167.427	49.1095	-70.2494	-168.61	48.0614	-96.8974	-188.496	52.2948	-33.9841	-195.755	55.8161	-51.8684	-201.934	72.0498	-66.8198	-163.934	56.9924	5.78204	-166.683	55.3691	32.945	-137.473	52.6715	25.0239	
275	2.29167	-117.243	25.5587	32.6025	-101.977	20.0984	13.3127	-85.5622	24.6519	-9.69032	-71.3318	26.855	-28.201	-119.515	31.8397	-42.6127	-124.373	0.639387	-55.639	-138.12	-23.1506	-40.4701	-143.062	42.2173	-52.5313	-141.78	22.7083	-75.5407	-151.082	-4.40755	-88.68	-161.805	51.8467	-46.1355	-166.544	49.8374	-71.7869	-165.903	48.7129	-100.525	-184.485	52.0401	-33.5525	-192.135	56.1362	-53.0126	-201.458	70.4179	-70.903	-167.947	57.5219	5.12286	-170.226	57.7086	32.937	-136.199	52.726	21.7228	
276	2.3	-121.342	25.9757	33.1701	-102.634	21.5564	11.9095	-89.0895	24.5381	-8.29781	-74.176	28.0928	-27.0924	-119.282	29.8144	-45.2806	-124.28	6.16197	-57.1518	-137.235	-19.6511	-41.7154	-142.275	44.0997	-53.4752	-143.102	26.1431	-75.5217	-147.833	-2.33689	-92.9912	-165.289	52.3139	-47.5548	-167.994	50.6316	-70.6929	-165.895	49.3457	-96.9022	-186.699	53.8151	-36.9089	-194.547	56.5771	-51.2521	-202.163	70.5488	-70.3059	-165.476	59.7452	5.10748	-168.998	56.8648	32.3953	-135.751	54.8387	22.8538	
